<svg width="92" height="48" xmlns="http://www.w3.org/2000/svg">

 <g>
  <title>background</title>
  <rect fill="none" id="canvas_background" height="50" width="94" y="-1" x="-1"/>
 </g>
 <g>
  <title>Layer 1</title>
  <path stroke="null" fill="#ffffff" id="svg_1" d="m29.156875,44.484768c0.765313,-0.694444 0.740625,-1.792114 0,-2.531361l-16.3925,-16.666661l70.260626,0c1.08625,0 1.975,-0.806451 1.975,-1.792114c0,-0.985663 -0.88875,-1.792114 -1.975,-1.792114l-70.260626,0l16.367813,-16.666661c0.715938,-0.761649 0.79,-1.814516 0.024688,-2.50896c-0.765313,-0.694444 -2.098438,-0.739247 -2.814375,-0.022401c0,0 -19.5525,19.489241 -19.75,19.713256s-0.5925,0.62724 -0.5925,1.276881s0.395,1.09767 0.5925,1.276881s19.75,19.713256 19.75,19.713256c0.370313,0.336021 0.88875,0.515233 1.407188,0.515233c0.518438,0 1.012188,-0.179211 1.407188,-0.515233z"/>
 </g>
</svg>